:FULLY-SPECIFIED
:DEGREES
899
root 4.46765 16.4421 -1.46264 -67.824 -85.8248 85.6434
lowerback -8.63268 -2.02927 -0.822846
upperback -4.99639 -2.81152 0.139574
thorax -0.28978 -1.4649 0.37455
lowerneck -15.5603 -0.386409 0.959568
upperneck 21.9608 -0.993067 -0.220277
head 9.4987 -0.505129 -0.379077
rclavicle 3.4191e-014 -3.97569e-015
rhumerus -42.6566 -9.5511 -76.705
rradius 30.561
rwrist 19.515
rhand -24.1198 -6.38305
rfingers 7.12502
rthumb 2.36163 -36.3497
lclavicle 3.4191e-014 -3.97569e-015
lhumerus -30.519 -12.1622 88.875
lradius 40.8098
lwrist -6.35641
lhand -36.8943 -2.07617
lfingers 7.12502
lthumb -9.97264 27.6676
rfemur -41.1786 11.4708 11.8737
rtibia 17.1974
rfoot -3.13395 -25.8369
rtoes -11.5996
lfemur -5.39448 -13.2795 -29.9198
ltibia 16.0471
lfoot -13.1457 16.454
ltoes -23.6177
900
root 4.43732 16.4605 -1.48848 -68.1605 -85.8911 85.95
lowerback -8.71509 -1.96245 -0.692547
upperback -5.01463 -2.73295 0.165485
thorax -0.268957 -1.42846 0.33214
lowerneck -15.5308 -0.381361 0.950768
upperneck 21.9354 -0.9698 -0.271687
head 9.4841 -0.500741 -0.392113
rclavicle -3.97569e-014 7.95139e-016
rhumerus -42.5883 -9.62168 -76.6771
rradius 30.4008
rwrist 19.5638
rhand -24.0215 -6.30685
rfingers 7.12502
rthumb 2.45664 -36.2725
lclavicle -3.97569e-014 7.95139e-016
lhumerus -30.9214 -11.6278 88.998
lradius 40.5172
lwrist -6.56982
lhand -36.9383 -2.08552
lfingers 7.12502
lthumb -10.0151 27.6562
rfemur -40.6863 10.8879 12.6255
rtibia 17.616
rfoot -2.2317 -25.2064
rtoes -11.5735
lfemur -5.47546 -12.6403 -29.7357
ltibia 17.2489
lfoot -13.1148 15.4122
ltoes -23.7298
901
root 4.40633 16.4787 -1.51235 -70.0251 -85.8831 87.7636
lowerback -8.78476 -1.87972 -0.59043
upperback -5.02814 -2.63114 0.128524
thorax -0.25198 -1.38062 0.243308
lowerneck -15.5279 -0.374302 0.899306
upperneck 21.9757 -0.953536 -0.249469
head 9.49818 -0.495346 -0.374049
rclavicle 3.10104e-014 7.95139e-015
rhumerus -42.6047 -9.52825 -76.7768
rradius 30.4249
rwrist 19.8039
rhand -23.9301 -6.43525
rfingers 7.12502
rthumb 2.54489 -36.3998
lclavicle 3.10104e-014 7.95139e-015
lhumerus -31.3694 -11.1332 89.0849
lradius 40.246
lwrist -6.53907
lhand -36.8874 -2.18546
lfingers 7.12502
lthumb -9.96601 27.5586
rfemur -40.1933 10.1304 13.4193
rtibia 18.2051
rfoot -1.72607 -24.1716
rtoes -9.90908
lfemur -5.65745 -11.7158 -29.6748
ltibia 18.5763
lfoot -12.6763 14.3595
ltoes -24.8485
902
root 4.37398 16.4928 -1.54064 -72.9565 -85.7702 90.5288
lowerback -8.76884 -1.76309 -0.625761
upperback -5.00128 -2.47169 0.0163855
thorax -0.237781 -1.30103 0.161181
lowerneck -15.4673 -0.389121 0.941927
upperneck 21.9481 -0.986396 -0.241877
head 9.47682 -0.506435 -0.382273
rclavicle 1.03368e-014 1.07344e-014
rhumerus -42.6375 -9.61436 -76.8834
rradius 30.4929
rwrist 19.9883
rhand -23.7831 -6.43849
rfingers 7.12502
rthumb 2.68683 -36.4013
lclavicle 1.03368e-014 1.07344e-014
lhumerus -31.8914 -10.7007 89.1133
lradius 40.0718
lwrist -6.625
lhand -36.8616 -2.13562
lfingers 7.12502
lthumb -9.94108 27.6096
rfemur -39.7442 9.54562 14.0091
rtibia 18.9709
rfoot -1.99659 -23.1035
rtoes -8.89431
lfemur -5.76689 -10.621 -29.739
ltibia 19.9748
lfoot -12.1712 13.3217
ltoes -26.2324
903
root 4.34369 16.5084 -1.569 -76.7317 -85.6814 94.2125
lowerback -8.77817 -1.62131 -0.665941
upperback -5.02445 -2.28146 -0.0479897
thorax -0.259262 -1.20635 0.133697
lowerneck -15.3804 -0.389789 0.850092
upperneck 21.9761 -0.985358 -0.160763
head 9.47133 -0.505559 -0.338642
rclavicle 1.59028e-015 0
rhumerus -42.6459 -9.59756 -76.9693
rradius 30.5043
rwrist 20.0724
rhand -23.7205 -6.26481
rfingers 7.12502
rthumb 2.74732 -36.2269
lclavicle 1.59028e-015 0
lhumerus -32.4347 -10.2676 89.2083
lradius 39.8788
lwrist -6.55635
lhand -36.7544 -2.16573
lfingers 7.12502
lthumb -9.83773 27.5844
rfemur -39.4713 9.27177 14.4396
rtibia 19.8012
rfoot -2.29272 -22.2399
rtoes -8.47261
lfemur -6.04209 -9.55206 -29.7206
ltibia 21.4594
lfoot -11.5748 12.273
ltoes -26.9535
